<svg xmlns="http://www.w3.org/2000/svg" viewBox="0 0 800 500">
  <rect width="800" height="500" rx="34" fill="#eef6fd"/>
  <text x="56" y="58" font-family="Arial, sans-serif" font-size="28" font-weight="700" fill="#17324d">Precision@10 Evaluation</text>
  <text x="56" y="90" font-family="Arial, sans-serif" font-size="16" fill="#5f7386">Content-Based Filtering — Goodreads-10k</text>
  <line x1="90" y1="410" x2="740" y2="410" stroke="#a9c9df" stroke-width="2"/>
  <line x1="90" y1="130" x2="90" y2="410" stroke="#a9c9df" stroke-width="2"/>
  <g font-family="Arial, sans-serif" font-size="15" fill="#5f7386">
    <text x="48" y="415">0.0</text><text x="48" y="360">0.2</text><text x="48" y="304">0.4</text><text x="48" y="248">0.6</text><text x="48" y="192">0.8</text><text x="48" y="136">1.0</text>
  </g>
  <g fill="#4fb8f4">
    <rect x="125" y="242" width="78" height="168" rx="10"/>
    <rect x="245" y="354" width="78" height="56" rx="10"/>
    <rect x="365" y="270" width="78" height="140" rx="10"/>
    <rect x="485" y="130" width="78" height="280" rx="10"/>
    <rect x="605" y="242" width="78" height="168" rx="10"/>
  </g>
  <g font-family="Arial, sans-serif" font-size="17" font-weight="700" fill="#17324d" text-anchor="middle">
    <text x="164" y="229">0.60</text><text x="284" y="341">0.20</text><text x="404" y="257">0.50</text><text x="524" y="117">1.00</text><text x="644" y="229">0.60</text>
  </g>
  <g font-family="Arial, sans-serif" font-size="14" fill="#5f7386" text-anchor="middle">
    <text x="164" y="438">The Hobbit</text>
    <text x="284" y="438">Pride &amp;</text><text x="284" y="456">Prejudice</text>
    <text x="404" y="438">Da Vinci</text><text x="404" y="456">Code</text>
    <text x="524" y="438">Harry Potter</text>
    <text x="644" y="438">Great Gatsby</text>
  </g>
  <rect x="560" y="55" width="175" height="46" rx="23" fill="#d9effb"/>
  <text x="647" y="84" font-family="Arial, sans-serif" font-size="18" font-weight="700" text-anchor="middle" fill="#238dca">Average: 0.58</text>
</svg>
